<svg width="30" height="30" viewBox="0 0 30 30" fill="none" xmlns="http://www.w3.org/2000/svg">
<path d="M16.5 4.5C16.5 4.10218 16.342 3.72064 16.0607 3.43934C15.7794 3.15804 15.3978 3 15 3C14.6022 3 14.2206 3.15804 13.9393 3.43934C13.658 3.72064 13.5 4.10218 13.5 4.5V6C13.5 6.39782 13.658 6.77936 13.9393 7.06066C14.2206 7.34196 14.6022 7.5 15 7.5C15.3978 7.5 15.7794 7.34196 16.0607 7.06066C16.342 6.77936 16.5 6.39782 16.5 6V4.5ZM23.4855 8.6355C23.7587 8.3526 23.9099 7.97369 23.9065 7.5804C23.9031 7.1871 23.7453 6.81088 23.4672 6.53277C23.1891 6.25466 22.8129 6.09691 22.4196 6.09349C22.0263 6.09007 21.6474 6.24126 21.3645 6.5145L20.304 7.575C20.0308 7.8579 19.8796 8.23681 19.883 8.6301C19.8864 9.0234 20.0442 9.39962 20.3223 9.67773C20.6004 9.95584 20.9766 10.1136 21.3699 10.117C21.7632 10.1204 22.1421 9.96924 22.425 9.696L23.4855 8.6355ZM27 15C27 15.3978 26.842 15.7794 26.5607 16.0607C26.2794 16.342 25.8978 16.5 25.5 16.5H24C23.6022 16.5 23.2206 16.342 22.9393 16.0607C22.658 15.7794 22.5 15.3978 22.5 15C22.5 14.6022 22.658 14.2206 22.9393 13.9393C23.2206 13.658 23.6022 13.5 24 13.5H25.5C25.8978 13.5 26.2794 13.658 26.5607 13.9393C26.842 14.2206 27 14.6022 27 15ZM7.575 9.696C7.71337 9.83927 7.87889 9.95354 8.06189 10.0322C8.2449 10.1108 8.44173 10.1521 8.6409 10.1539C8.84007 10.1556 9.03759 10.1177 9.22193 10.0422C9.40628 9.96681 9.57375 9.85543 9.71459 9.71459C9.85543 9.57375 9.96681 9.40628 10.0422 9.22193C10.1177 9.03759 10.1556 8.84007 10.1539 8.6409C10.1521 8.44173 10.1108 8.2449 10.0322 8.06189C9.95354 7.87889 9.83927 7.71337 9.696 7.575L8.6355 6.5145C8.3526 6.24126 7.97369 6.09007 7.5804 6.09349C7.1871 6.09691 6.81088 6.25466 6.53277 6.53277C6.25466 6.81088 6.09691 7.1871 6.09349 7.5804C6.09007 7.97369 6.24126 8.3526 6.5145 8.6355L7.575 9.696ZM7.5 15C7.5 15.3978 7.34196 15.7794 7.06066 16.0607C6.77936 16.342 6.39782 16.5 6 16.5H4.5C4.10218 16.5 3.72064 16.342 3.43934 16.0607C3.15804 15.7794 3 15.3978 3 15C3 14.6022 3.15804 14.2206 3.43934 13.9393C3.72064 13.658 4.10218 13.5 4.5 13.5H6C6.39782 13.5 6.77936 13.658 7.06066 13.9393C7.34196 14.2206 7.5 14.6022 7.5 15ZM12 24V22.5H18V24C18 24.7956 17.6839 25.5587 17.1213 26.1213C16.5587 26.6839 15.7956 27 15 27C14.2044 27 13.4413 26.6839 12.8787 26.1213C12.3161 25.5587 12 24.7956 12 24ZM18 21C18.0225 20.49 18.312 20.031 18.7155 19.7115C19.6945 18.9394 20.4087 17.8814 20.7587 16.6847C21.1087 15.488 21.0773 14.212 20.6686 13.034C20.26 11.856 19.4946 10.8346 18.4786 10.1117C17.4627 9.38878 16.2469 9.00034 15 9.00034C13.7531 9.00034 12.5373 9.38878 11.5214 10.1117C10.5054 10.8346 9.73998 11.856 9.33136 13.034C8.92274 14.212 8.89125 15.488 9.24128 16.6847C9.59132 17.8814 10.3055 18.9394 11.2845 19.7115C11.6895 20.031 11.9775 20.49 11.9985 21H18.0015H18Z" fill="white"/>
</svg>
